<svg xmlns="http://www.w3.org/2000/svg" width="30" height="30" viewBox="0 0 24 24">
	<g fill="none">
		<path fill="url(#fluentColorBotSparkle246)" d="M17.753 14a2.25 2.25 0 0 1 2.25 2.25v.905A3.75 3.75 0 0 1 18.696 20C17.13 21.344 14.89 22.001 12 22.001s-5.128-.657-6.691-2a3.75 3.75 0 0 1-1.305-2.844v-.907A2.25 2.25 0 0 1 6.254 14z" />
		<path fill="url(#fluentColorBotSparkle240)" d="M17.753 14a2.25 2.25 0 0 1 2.25 2.25v.905A3.75 3.75 0 0 1 18.696 20C17.13 21.344 14.89 22.001 12 22.001s-5.128-.657-6.691-2a3.75 3.75 0 0 1-1.305-2.844v-.907A2.25 2.25 0 0 1 6.254 14z" />
		<path fill="url(#fluentColorBotSparkle247)" d="M17.753 14a2.25 2.25 0 0 1 2.25 2.25v.905A3.75 3.75 0 0 1 18.696 20C17.13 21.344 14.89 22.001 12 22.001s-5.128-.657-6.691-2a3.75 3.75 0 0 1-1.305-2.844v-.907A2.25 2.25 0 0 1 6.254 14z" />
		<path fill="url(#fluentColorBotSparkle248)" d="M17.753 14a2.25 2.25 0 0 1 2.25 2.25v.905A3.75 3.75 0 0 1 18.696 20C17.13 21.344 14.89 22.001 12 22.001s-5.128-.657-6.691-2a3.75 3.75 0 0 1-1.305-2.844v-.907A2.25 2.25 0 0 1 6.254 14z" />
		<path fill="url(#fluentColorBotSparkle249)" d="M17.753 14a2.25 2.25 0 0 1 2.25 2.25v.905A3.75 3.75 0 0 1 18.696 20C17.13 21.344 14.89 22.001 12 22.001s-5.128-.657-6.691-2a3.75 3.75 0 0 1-1.305-2.844v-.907A2.25 2.25 0 0 1 6.254 14z" />
		<path fill="url(#fluentColorBotSparkle241)" d="m12 2.5l-.102.007a.75.75 0 0 0-.648.743L11.243 5h1.5l.007-1.75l-.007-.102A.75.75 0 0 0 12 2.5" />
		<path fill="url(#fluentColorBotSparkle24a)" d="M18 6.25A2.25 2.25 0 0 0 15.75 4h-7.5A2.25 2.25 0 0 0 6 6.25v3.5A2.25 2.25 0 0 0 8.25 12h7.5A2.25 2.25 0 0 0 18 9.75z" />
		<path fill="url(#fluentColorBotSparkle242)" d="M14.242 6.5a1.25 1.25 0 1 0 0 2.499a1.25 1.25 0 0 0 0-2.499" />
		<path fill="url(#fluentColorBotSparkle243)" d="M9.75 6.5a1.25 1.25 0 1 0 0 2.499a1.25 1.25 0 0 0 0-2.499" />
		<path fill="url(#fluentColorBotSparkle244)" d="m23.018 20.965l.765.248l.015.004a.303.303 0 0 1 .147.46a.3.3 0 0 1-.147.11l-.765.248a1.58 1.58 0 0 0-1 .999l-.248.764a.302.302 0 0 1-.57 0l-.249-.764a1.58 1.58 0 0 0-.999-1.002l-.765-.249a.303.303 0 0 1-.147-.46a.3.3 0 0 1 .147-.11l.765-.248a1.58 1.58 0 0 0 .984-.998l.249-.765a.302.302 0 0 1 .57 0l.249.764a1.58 1.58 0 0 0 .999.999" />
		<path fill="url(#fluentColorBotSparkle245)" d="M15.854 17.146a2.85 2.85 0 0 1 .685 1.114l.448 1.377a.544.544 0 0 0 1.026 0l.448-1.377a2.84 2.84 0 0 1 1.798-1.796l1.378-.448a.545.545 0 0 0 0-1.025l-.028-.007l-1.378-.448a2.84 2.84 0 0 1-1.798-1.796l-.447-1.377a.544.544 0 0 0-1.027 0l-.448 1.377l-.011.034a2.84 2.84 0 0 1-1.759 1.762l-1.378.448a.545.545 0 0 0 0 1.025l1.378.448c.42.14.8.376 1.113.689" />
		<defs>
			<linearGradient id="fluentColorBotSparkle240" x1="12.003" x2="15.623" y1="13.047" y2="26.573" gradientUnits="userSpaceOnUse">
				<stop stop-color="#885edb" stop-opacity="0" />
				<stop offset="1" stop-color="#e362f8" />
			</linearGradient>
			<linearGradient id="fluentColorBotSparkle241" x1="11.209" x2="12.984" y1="2" y2="3.871" gradientUnits="userSpaceOnUse">
				<stop stop-color="#8b52f4" />
				<stop offset="1" stop-color="#3d35b1" />
			</linearGradient>
			<linearGradient id="fluentColorBotSparkle242" x1="13.585" x2="15.479" y1="6.596" y2="9.865" gradientUnits="userSpaceOnUse">
				<stop stop-color="#fdfdfd" />
				<stop offset="1" stop-color="#f9dcfa" />
			</linearGradient>
			<linearGradient id="fluentColorBotSparkle243" x1="9.092" x2="10.986" y1="6.596" y2="9.865" gradientUnits="userSpaceOnUse">
				<stop stop-color="#fdfdfd" />
				<stop offset="1" stop-color="#f9dcfa" />
			</linearGradient>
			<linearGradient id="fluentColorBotSparkle244" x1="20" x2="23.002" y1="19.5" y2="23.499" gradientUnits="userSpaceOnUse">
				<stop stop-color="#ffa43d" />
				<stop offset="1" stop-color="#fb5937" />
			</linearGradient>
			<linearGradient id="fluentColorBotSparkle245" x1="20.071" x2="13.76" y1="18.714" y2="11.457" gradientUnits="userSpaceOnUse">
				<stop stop-color="#ff8a69" />
				<stop offset="1" stop-color="#ffcd0f" />
			</linearGradient>
			<radialGradient id="fluentColorBotSparkle246" cx="0" cy="0" r="1" gradientTransform="matrix(19.19176 11.26316 -17.94042 30.56942 .311 11.538)" gradientUnits="userSpaceOnUse">
				<stop stop-color="#f08af4" />
				<stop offset=".535" stop-color="#9c6cfe" />
				<stop offset="1" stop-color="#4e44db" />
			</radialGradient>
			<radialGradient id="fluentColorBotSparkle247" cx="0" cy="0" r="1" gradientTransform="matrix(0 -3.69284 2.09609 0 17.542 17.693)" gradientUnits="userSpaceOnUse">
				<stop stop-color="#4e44db" />
				<stop offset="1" stop-color="#4e44db" stop-opacity="0" />
			</radialGradient>
			<radialGradient id="fluentColorBotSparkle248" cx="0" cy="0" r="1" gradientTransform="rotate(-134.995 11.873 4.725)scale(3.48134 2.611)" gradientUnits="userSpaceOnUse">
				<stop stop-color="#4e44db" />
				<stop offset="1" stop-color="#4e44db" stop-opacity="0" />
			</radialGradient>
			<radialGradient id="fluentColorBotSparkle249" cx="0" cy="0" r="1" gradientTransform="matrix(-5.53829 0 0 -2.17339 17.542 15.846)" gradientUnits="userSpaceOnUse">
				<stop stop-color="#4e44db" />
				<stop offset="1" stop-color="#4e44db" stop-opacity="0" />
			</radialGradient>
			<radialGradient id="fluentColorBotSparkle24a" cx="0" cy="0" r="1" gradientTransform="matrix(15.82499 12.22856 -23.10104 29.89508 1.8 .571)" gradientUnits="userSpaceOnUse">
				<stop stop-color="#f08af4" />
				<stop offset=".535" stop-color="#9c6cfe" />
				<stop offset="1" stop-color="#4e44db" />
			</radialGradient>
		</defs>
	</g>
</svg>