<svg xmlns="http://www.w3.org/2000/svg" width="48" height="48" viewBox="0 0 16 16">
	<g fill="none">
		<path fill="url(#fluentColorBot164)" d="M4.5 9.5A1.5 1.5 0 0 0 3 11v.35c0 1.305.6 2.25 1.554 2.843C5.479 14.768 6.71 15 8 15c1.297 0 2.528-.231 3.452-.807C12.406 13.6 13 12.653 13 11.35V11a1.5 1.5 0 0 0-1.5-1.5z" />
		<path fill="url(#fluentColorBot160)" d="M4.5 9.5A1.5 1.5 0 0 0 3 11v.35c0 1.305.6 2.25 1.554 2.843C5.479 14.768 6.71 15 8 15c1.297 0 2.528-.231 3.452-.807C12.406 13.6 13 12.653 13 11.35V11a1.5 1.5 0 0 0-1.5-1.5z" />
		<path fill="url(#fluentColorBot161)" d="M8.5 1.5a.5.5 0 0 0-1 0v1h1z" />
		<path fill="url(#fluentColorBot165)" d="M10.5 2A1.5 1.5 0 0 1 12 3.5v3A1.5 1.5 0 0 1 10.5 8h-5A1.5 1.5 0 0 1 4 6.5v-3A1.5 1.5 0 0 1 5.5 2z" />
		<path fill="url(#fluentColorBot162)" d="M9.5 4.25a.75.75 0 1 0 0 1.5a.75.75 0 0 0 0-1.5" />
		<path fill="url(#fluentColorBot163)" d="M5.75 5a.75.75 0 1 1 1.5 0a.75.75 0 0 1-1.5 0" />
		<defs>
			<linearGradient id="fluentColorBot160" x1="8" x2="10.699" y1="8.845" y2="18.014" gradientUnits="userSpaceOnUse">
				<stop stop-color="#885edb" stop-opacity="0" />
				<stop offset="1" stop-color="#e362f8" />
			</linearGradient>
			<linearGradient id="fluentColorBot161" x1="7.477" x2="8.532" y1="1" y2="2.229" gradientUnits="userSpaceOnUse">
				<stop stop-color="#8b52f4" />
				<stop offset="1" stop-color="#3d35b1" />
			</linearGradient>
			<linearGradient id="fluentColorBot162" x1="9.106" x2="10.243" y1="4.308" y2="6.27" gradientUnits="userSpaceOnUse">
				<stop stop-color="#fdfdfd" />
				<stop offset="1" stop-color="#f9dcfa" />
			</linearGradient>
			<linearGradient id="fluentColorBot163" x1="6.106" x2="7.243" y1="4.308" y2="6.27" gradientUnits="userSpaceOnUse">
				<stop stop-color="#fdfdfd" />
				<stop offset="1" stop-color="#f9dcfa" />
			</linearGradient>
			<radialGradient id="fluentColorBot164" cx="0" cy="0" r="1" gradientTransform="matrix(11.9952 7.74224 -12.87191 19.9427 .692 7.807)" gradientUnits="userSpaceOnUse">
				<stop stop-color="#f08af4" />
				<stop offset=".535" stop-color="#9c6cfe" />
				<stop offset="1" stop-color="#4e44db" />
			</radialGradient>
			<radialGradient id="fluentColorBot165" cx="0" cy="0" r="1" gradientTransform="rotate(45 2.112 2.265)scale(13.4772 26.308)" gradientUnits="userSpaceOnUse">
				<stop stop-color="#f08af4" />
				<stop offset=".535" stop-color="#9c6cfe" />
				<stop offset="1" stop-color="#4e44db" />
			</radialGradient>
		</defs>
	</g>
</svg>